<?xml version="1.0" encoding="UTF-8"?>
<svg id="Layer_1" xmlns="http://www.w3.org/2000/svg" version="1.1" viewBox="0 0 1024 1024">
  <!-- Generator: Adobe Illustrator 30.0.0, SVG Export Plug-In . SVG Version: 2.1.1 Build 123)  -->
  <defs>
    <style>
      .st0 {
        fill: #22b28c;
      }
    </style>
  </defs>
  <path class="st0" d="M521.3,554.6c-8.9.1-17.6,5.7-23.2,12.4-8.9,10.6-16.9,24-21.8,37-3,8-1,17,1.6,24.9.5,1.6-.7,3.2-2.3,3.2-5.1,0-9.8-.6-13.9-4.4-11.5-10.6-13-44.1-16.9-63.4-.4-2.1-3.3-2.7-4.5-.8-3.4,5.3-6.6,9.7-11.2,15.1-2.7,3.1-7.4,7.7-9.9,11.1s-.6,1.4-.4,2.1c2.6,9.9,8.3,30,10,41.1.3,1.7-1.2,3.1-2.9,2.8-23.2-4.1-26.6-29.4-23.2-49.4.3-1.6.5-3.2.7-4.9s-2.2-3.6-3.9-2.3c-8.5,6.4-18.8,16.9-20.4,26-1.9,10.4-1,19.2,2.5,28.6s-.4,3-1.9,3.3c-4.7.8-8.6.5-13.3-2.5-14.9-9.6-14.4-33.1-12.1-49.7.3-2.2-2.2-3.6-3.9-2.3-8.1,6.3-18.3,15.6-19.9,24.3-1.1,6,1,21.7.6,28.8s-.9,2.1-2,2.3c-1.8.3-4.1.1-5.4-.1-15.8-3.3-26.6-17.6-28.6-33.1-1.5-12.2-1.5-24.4-2-36.5-1.4-26.9-2.1-53.9-2.3-80.8,0-14-.2-30.6,2.3-44.4l-.4-.7h-.6c-15.1,10.8-27.8,32.1-30.4,50.4-2.1,14.5-.4,34.1.6,48.7l3,49c1.2,21.6,3.8,26.4-9.5,42.8s-3.1,1.2-4-.3c-3.9-6.4-8-12.3-12.1-18.7-2.4-3.7-3.5-10.2-5.3-14.3-9.4-26.5-31-34.3-55-19.2-12.5,7.8-23.2,19.1-30.4,32.2-2.1,3.9-4.1,9.3-6.3,13s-.6.7-1.1.9c-13.3,6.1-20.2,15.2-26.8,28.3-6.6,13.1-7.5,25.2-1.9,38.9,5.3,12.9,19,22.8,33.8,28.8,2.8,1.1,4.8-2.8,2.2-4.3-3.7-2.3-7.2-5-10.5-8.5-4.1-4.2-6.5-6.5-9.4-12.1-5.5-10.6-6.7-32,5.4-38.5,5.4-2.9,17.6-.2,23,2,18.5,7.3,36.5,22.3,54.8,29.6,1,.4,2.1,0,2.8-.7,2.6-3.2,5.1-6.8,7.6-9.6s1.1-.8,1.7-.8c11.6-.4,20-4.6,27-14.5,1.6-2.3,2.3-5.6,4-8s.1-.2.2-.2c4.3-5.1,9.6-10,13.9-15.3s3.4-1.1,4.1.5c2.1,4.6,4.2,7.9,7.9,12.3,10.6,12.7,29.1,19.8,43.8,9.1,3.2-2.4,6.1-5.4,8.9-8.3s2.8-1,3.7.2c14.5,19,30.9,15.2,45.6-1s2.5-1.1,3.5-.1c6.8,6.4,14.4,12.9,24.3,12.7,9.6-.2,16.2-6.2,22.8-12.1,1-.9,2.4-.8,3.3,0,1.8,1.8,3.8,3.6,5.7,5.1s.2.1.3.2c20,11.4,29.7-4.1,43.2-15,.9-.8,2.3-.8,3.2,0,13.9,12.6,35.1,24.8,53.5,25.2,12.8.3,32.5-33,35.1-44.2,7.6-33.1-23.3-72-57.2-71.7ZM198.2,638.9c-15.4-9.7-22.2-14.3-38.7-15.1-1.9-.1-3-2.3-1.9-3.9,6.2-8.3,11.9-12.2,23.2-15s.4,0,.6,0c17.3-.2,26.4,21.5,31.4,37s-1.5,3.9-3.4,2.9c-3.8-1.8-7.5-3.7-11.2-5.8ZM559,635.9h-.8c-.2,0-.5,0-.7-.1-19-6.2-41.4-14.5-53.9-30.9-2.3-3-6-9.8-6-14.1s.3-1.4.9-1.8.9-.3,2.3-.6.3,0,.5,0c24.7-1,47.2,13.7,56,37.2.8,2.2,2.7,8.6,1.8,10.5Z"/>
  <path class="st0" d="M551.1,664.1c7.4-1.1,15,.6,22.5,1.1s15.8-.5,21.1-5.8c3.2-3.3,5-7.8,8.7-10.7.5-.4,1.2-.8,1.8-.7.6.1,1.1.7,1.5,1.2,1,1.3,2,2.4,3,3.5,2.9,3,8,1.8,9.4-2.1,4.7-13.6,7.3-27.1,8.4-41.9,1.6-21.9-.9-43.8-2.1-65.7-1.6-31.1-.4-62.3.8-93.5-8.8,5.6-16.1,13.6-21.1,22.8-8.5,15.6-10.5,33.8-10.5,51.6,0,29.7,5.4,59.2,5.2,89,0,6.7-.4,13.6-3.5,19.5-5.8,11.1-20.5,11.2-31.5,11.6"/>
  <path class="st0" d="M647.1,622.4c.9,7.1,1.9,14.2,2.8,21.4.9,6.9,2.6,18.1,9.3,21.9,4.3-13.7,8.6-27.5,12.8-41.2,2.4-7.6,2-14.2,1.8-21.9-.1-7.4,0-14.8,0-22.3-.4-27,.9-84.5,1.7-111.5.5-14,.8-30.6,3.9-44.3l-.4-.7h-.6c-15.5,10.2-29,31-32.2,49.2-2.6,14.4-2.7,64.6-2.3,79.3,0,0,1.2,49.1,1.2,49.1.4,7.1,1.1,14,2,20.9Z"/>
  <path class="st0" d="M724.5,618.6c1.4-14.2.3-28.7-1.3-42.7-2.5-21.3-7.3-42.3-12.5-63.1-5.1-20.4-12.1-42.3-11.8-63.5.4-25.9,17.5-43.9,35.3-60.8.5,1.4-3,12.5-3.5,15.6-1.6,10-2,20.2-1.1,30.3,1.4,15.7,4.9,29.1,8.4,44.3,7.9,34.6,17.3,67.3,14.6,103.2-.8,11.4-3.1,19.7-4.6,30.8,6.7.5,18.2,4.4,24.5,7,16.7,6.9,34.6,12.8,52.9,11.5,11-.8,18.9-.2,17.9-13.3-.8-16.6-9.7-30.8-16.4-45.5-1.2-2.7-6.9-14.6-4.2-17,11.2-10.3,20.6-20.2,30.4-31.8.5,9.8,1.4,20.9,4.1,30.2,4.1,14.2,9.8,26.9,11.9,41.7,2.8,19.5-1.9,30.3-13.4,45.5-6,7.9-19.4,18.8-29,21.7-32,9.6-64.6-7.1-92.3-20.9,0,0-9.2,9.1-10.3,10-3.7,2.8-8.4,6.3-12.9,7.6,2.9-7.6,7.3-14.4,9.7-22.3,1.8-6.1,2.9-12.3,3.6-18.6Z"/>
  <path class="st0" d="M864,473.6c8.6-3.5,39.8-31,47.4-36.4,2.5-1.8,5.4-3.7,8.4-2.9-.4,2.7-1.8,5.2-3,7.7-8.4,17.1-9.2,35.3-7,53.8,2.6,22.8,8.7,45,11.9,67.7,2.8,19.8,3.4,40.2-1.3,59.6-4.7,19.4-15.2,37.9-31.3,49.7-1.7,1.2-4.7,2-5.2,0-.2-.8.2-1.7.6-2.4,3.5-6.8,6.3-14,8.2-21.4,4.8-18.4,4.3-37.9,2-56.8s-6.4-37.6-8.9-56.5c-3.1-23.9-3.5-40.6-1.2-64.7"/>
  <path class="st0" d="M820.2,468.9c.9-.8,2.3-.8,3.3,0,4.5,4,8.9,7.7,13.8,11.5,3.7,2.9,10,6.5,13.8,9.8s1.1,2.1.5,3.1c-4.1,6.8-18.3,27.8-20.9,29.6h-.4c-.4-.2-.8-.4-1.1-.6-10.5-9.3-20.3-14.7-30.1-22.6-1-.8-1.2-2.2-.5-3.2,5.2-8.1,14.8-21.4,21.7-27.6Z"/>
  <polygon class="st0" points="475.3 492.3 347.7 529.1 344.5 540.7 472.1 503.8 475.3 492.3"/>
</svg>