<svg xmlns="http://www.w3.org/2000/svg" xmlns:xlink="http://www.w3.org/1999/xlink" width="2000" zoomAndPan="magnify" viewBox="0 0 1500 1499.999933" height="2000" preserveAspectRatio="xMidYMid meet" version="1.0"><defs><g/><clipPath id="0f87ec6af5"><path d="M 745 322 L 1061.5625 322 L 1061.5625 1058.25 L 745 1058.25 Z M 745 322 " clip-rule="nonzero"/></clipPath><clipPath id="8c486cdf07"><path d="M 438.3125 322 L 753 322 L 753 1058.25 L 438.3125 1058.25 Z M 438.3125 322 " clip-rule="nonzero"/></clipPath><clipPath id="30ff5e0db6"><path d="M 736.726562 291.445312 L 763.222656 291.445312 L 763.222656 317.941406 L 736.726562 317.941406 Z M 736.726562 291.445312 " clip-rule="nonzero"/></clipPath><clipPath id="c323c7b837"><path d="M 763.222656 304.695312 C 763.222656 312.011719 757.289062 317.941406 749.972656 317.941406 C 742.65625 317.941406 736.726562 312.011719 736.726562 304.695312 C 736.726562 297.378906 742.65625 291.445312 749.972656 291.445312 C 757.289062 291.445312 763.222656 297.378906 763.222656 304.695312 Z M 763.222656 304.695312 " clip-rule="nonzero"/></clipPath><clipPath id="dc2f62e816"><path d="M 763.222656 304.695312 C 763.222656 312.011719 757.289062 317.941406 749.972656 317.941406 C 742.65625 317.941406 736.726562 312.011719 736.726562 304.695312 C 736.726562 297.378906 742.65625 291.445312 749.972656 291.445312 C 757.289062 291.445312 763.222656 297.378906 763.222656 304.695312 " clip-rule="nonzero"/></clipPath><radialGradient gradientTransform="matrix(0, 1.00003, -0.99997, 0, 751.51746, 201.334071)" gradientUnits="userSpaceOnUse" r="124.602305" cx="0" id="24a2529e12" cy="0" fx="0" fy="0"><stop stop-opacity="1" stop-color="rgb(50.004578%, 79.418945%, 16.468811%)" offset="0"/><stop stop-opacity="1" stop-color="rgb(49.740601%, 79.223633%, 16.40625%)" offset="0.015625"/><stop stop-opacity="1" stop-color="rgb(49.604797%, 79.219055%, 16.273499%)" offset="0.0195312"/><stop stop-opacity="1" stop-color="rgb(49.467468%, 79.212952%, 16.142273%)" offset="0.0234375"/><stop stop-opacity="1" stop-color="rgb(49.208069%, 79.013062%, 16.079712%)" offset="0.0273438"/><stop stop-opacity="1" stop-color="rgb(49.01886%, 78.819275%, 16.079712%)" offset="0.0390625"/><stop stop-opacity="1" stop-color="rgb(48.838806%, 78.639221%, 16.079712%)" offset="0.0507812"/><stop stop-opacity="1" stop-color="rgb(48.64502%, 78.443909%, 16.079712%)" offset="0.0546875"/><stop stop-opacity="1" stop-color="rgb(48.458862%, 78.42865%, 16.249084%)" offset="0.0585938"/><stop stop-opacity="1" stop-color="rgb(48.200989%, 78.367615%, 16.444397%)" offset="0.0625"/><stop stop-opacity="1" stop-color="rgb(48.043823%, 78.237915%, 16.468811%)" offset="0.0664062"/><stop stop-opacity="1" stop-color="rgb(47.906494%, 77.973938%, 16.468811%)" offset="0.0703125"/><stop stop-opacity="1" stop-color="rgb(47.712708%, 77.713013%, 16.468811%)" offset="0.0820312"/><stop stop-opacity="1" stop-color="rgb(47.517395%, 77.513123%, 16.468811%)" offset="0.09375"/><stop stop-opacity="1" stop-color="rgb(47.253418%, 77.304077%, 16.664124%)" offset="0.105469"/><stop stop-opacity="1" stop-color="rgb(47.055054%, 77.044678%, 16.859436%)" offset="0.117188"/><stop stop-opacity="1" stop-color="rgb(46.859741%, 76.731873%, 16.859436%)" offset="0.121094"/><stop stop-opacity="1" stop-color="rgb(46.669006%, 76.541138%, 16.859436%)" offset="0.132812"/><stop stop-opacity="1" stop-color="rgb(46.603394%, 76.409912%, 16.859436%)" offset="0.136719"/><stop stop-opacity="1" stop-color="rgb(46.466064%, 76.271057%, 16.859436%)" offset="0.140625"/><stop stop-opacity="1" stop-color="rgb(46.325684%, 76.139832%, 16.86554%)" offset="0.144531"/><stop stop-opacity="1" stop-color="rgb(46.066284%, 75.88501%, 17.060852%)" offset="0.148438"/><stop stop-opacity="1" stop-color="rgb(45.689392%, 75.497437%, 17.248535%)" offset="0.171875"/><stop stop-opacity="1" stop-color="rgb(45.433044%, 75.296021%, 17.248535%)" offset="0.183594"/><stop stop-opacity="1" stop-color="rgb(45.231628%, 75.221252%, 17.248535%)" offset="0.1875"/><stop stop-opacity="1" stop-color="rgb(45.098877%, 75.088501%, 17.248535%)" offset="0.199219"/><stop stop-opacity="1" stop-color="rgb(45.098877%, 74.961853%, 17.250061%)" offset="0.203125"/><stop stop-opacity="1" stop-color="rgb(45.098877%, 74.899292%, 17.448425%)" offset="0.207031"/><stop stop-opacity="1" stop-color="rgb(44.903564%, 74.703979%, 17.64679%)" offset="0.210938"/><stop stop-opacity="1" stop-color="rgb(44.709778%, 74.334717%, 17.649841%)" offset="0.222656"/><stop stop-opacity="1" stop-color="rgb(44.685364%, 74.118042%, 17.649841%)" offset="0.226562"/><stop stop-opacity="1" stop-color="rgb(44.485474%, 73.901367%, 17.649841%)" offset="0.230469"/><stop stop-opacity="1" stop-color="rgb(44.180298%, 73.596191%, 17.778015%)" offset="0.242188"/><stop stop-opacity="1" stop-color="rgb(43.894958%, 73.306274%, 17.971802%)" offset="0.253906"/><stop stop-opacity="1" stop-color="rgb(43.641663%, 73.051453%, 18.03894%)" offset="0.261719"/><stop stop-opacity="1" stop-color="rgb(43.438721%, 72.947693%, 18.03894%)" offset="0.265625"/><stop stop-opacity="1" stop-color="rgb(43.235779%, 72.833252%, 18.03894%)" offset="0.269531"/><stop stop-opacity="1" stop-color="rgb(43.139648%, 72.537231%, 18.03894%)" offset="0.277344"/><stop stop-opacity="1" stop-color="rgb(43.041992%, 72.251892%, 18.135071%)" offset="0.285156"/><stop stop-opacity="1" stop-color="rgb(42.84668%, 72.064209%, 18.330383%)" offset="0.292969"/><stop stop-opacity="1" stop-color="rgb(42.658997%, 71.864319%, 18.429565%)" offset="0.300781"/><stop stop-opacity="1" stop-color="rgb(42.459106%, 71.664429%, 18.429565%)" offset="0.308594"/><stop stop-opacity="1" stop-color="rgb(42.341614%, 71.461487%, 18.429565%)" offset="0.316406"/><stop stop-opacity="1" stop-color="rgb(42.146301%, 71.166992%, 18.429565%)" offset="0.320312"/><stop stop-opacity="1" stop-color="rgb(41.763306%, 70.783997%, 18.429565%)" offset="0.328125"/><stop stop-opacity="1" stop-color="rgb(41.471863%, 70.492554%, 18.525696%)" offset="0.347656"/><stop stop-opacity="1" stop-color="rgb(41.27655%, 70.297241%, 18.719482%)" offset="0.355469"/><stop stop-opacity="1" stop-color="rgb(41.178894%, 70.097351%, 18.818665%)" offset="0.363281"/><stop stop-opacity="1" stop-color="rgb(41.081238%, 69.897461%, 18.818665%)" offset="0.371094"/><stop stop-opacity="1" stop-color="rgb(40.881348%, 69.708252%, 18.818665%)" offset="0.378906"/><stop stop-opacity="1" stop-color="rgb(40.779114%, 69.522095%, 18.818665%)" offset="0.386719"/><stop stop-opacity="1" stop-color="rgb(40.679932%, 69.319153%, 18.818665%)" offset="0.390625"/><stop stop-opacity="1" stop-color="rgb(40.432739%, 69.062805%, 18.818665%)" offset="0.394531"/><stop stop-opacity="1" stop-color="rgb(40.092468%, 68.722534%, 18.867493%)" offset="0.402344"/><stop stop-opacity="1" stop-color="rgb(39.709473%, 68.336487%, 19.068909%)" offset="0.417969"/><stop stop-opacity="1" stop-color="rgb(39.367676%, 67.990112%, 19.219971%)" offset="0.433594"/><stop stop-opacity="1" stop-color="rgb(39.219666%, 67.739868%, 19.219971%)" offset="0.449219"/><stop stop-opacity="1" stop-color="rgb(39.219666%, 67.451477%, 19.219971%)" offset="0.457031"/><stop stop-opacity="1" stop-color="rgb(39.128113%, 67.160034%, 19.219971%)" offset="0.464844"/><stop stop-opacity="1" stop-color="rgb(38.882446%, 67.01355%, 19.219971%)" offset="0.472656"/><stop stop-opacity="1" stop-color="rgb(38.626099%, 66.867065%, 19.219971%)" offset="0.480469"/><stop stop-opacity="1" stop-color="rgb(38.427734%, 66.665649%, 19.219971%)" offset="0.488281"/><stop stop-opacity="1" stop-color="rgb(38.233948%, 66.468811%, 19.219971%)" offset="0.496094"/><stop stop-opacity="1" stop-color="rgb(38.088989%, 66.195679%, 19.343567%)" offset="0.503906"/><stop stop-opacity="1" stop-color="rgb(38.038635%, 65.957642%, 19.529724%)" offset="0.515625"/><stop stop-opacity="1" stop-color="rgb(37.9776%, 65.826416%, 19.60144%)" offset="0.519531"/><stop stop-opacity="1" stop-color="rgb(37.783813%, 65.623474%, 19.60907%)" offset="0.523438"/><stop stop-opacity="1" stop-color="rgb(37.649536%, 65.42511%, 19.60907%)" offset="0.535156"/><stop stop-opacity="1" stop-color="rgb(37.583923%, 65.167236%, 19.60907%)" offset="0.546875"/><stop stop-opacity="1" stop-color="rgb(37.446594%, 64.901733%, 19.60907%)" offset="0.558594"/><stop stop-opacity="1" stop-color="rgb(37.306213%, 64.764404%, 19.60907%)" offset="0.5625"/><stop stop-opacity="1" stop-color="rgb(37.045288%, 64.501953%, 19.60907%)" offset="0.566406"/><stop stop-opacity="1" stop-color="rgb(36.660767%, 64.120483%, 19.60907%)" offset="0.578125"/><stop stop-opacity="1" stop-color="rgb(36.407471%, 63.864136%, 19.60907%)" offset="0.601562"/><stop stop-opacity="1" stop-color="rgb(36.276245%, 63.726807%, 19.60907%)" offset="0.605469"/><stop stop-opacity="1" stop-color="rgb(36.143494%, 63.589478%, 19.60907%)" offset="0.609375"/><stop stop-opacity="1" stop-color="rgb(36.079407%, 63.330078%, 19.60907%)" offset="0.613281"/><stop stop-opacity="1" stop-color="rgb(35.888672%, 62.948608%, 19.60907%)" offset="0.625"/><stop stop-opacity="1" stop-color="rgb(35.693359%, 62.753296%, 19.60907%)" offset="0.636719"/><stop stop-opacity="1" stop-color="rgb(35.688782%, 62.651062%, 19.60907%)" offset="0.644531"/><stop stop-opacity="1" stop-color="rgb(35.679626%, 62.442017%, 19.60907%)" offset="0.648438"/><stop stop-opacity="1" stop-color="rgb(35.476685%, 62.145996%, 19.60907%)" offset="0.652344"/><stop stop-opacity="1" stop-color="rgb(35.090637%, 61.959839%, 19.60907%)" offset="0.660156"/><stop stop-opacity="1" stop-color="rgb(34.899902%, 61.769104%, 19.60907%)" offset="0.667969"/><stop stop-opacity="1" stop-color="rgb(34.713745%, 61.38916%, 19.60907%)" offset="0.675781"/><stop stop-opacity="1" stop-color="rgb(34.370422%, 61.036682%, 19.804382%)" offset="0.683594"/><stop stop-opacity="1" stop-color="rgb(34.117126%, 60.731506%, 19.950867%)" offset="0.703125"/><stop stop-opacity="1" stop-color="rgb(33.927917%, 60.395813%, 19.807434%)" offset="0.710938"/><stop stop-opacity="1" stop-color="rgb(33.781433%, 60.055542%, 19.66095%)" offset="0.71875"/><stop stop-opacity="1" stop-color="rgb(33.729553%, 59.803772%, 19.60907%)" offset="0.726562"/><stop stop-opacity="1" stop-color="rgb(33.578491%, 59.509277%, 19.755554%)" offset="0.734375"/><stop stop-opacity="1" stop-color="rgb(33.31604%, 59.268188%, 19.950867%)" offset="0.75"/><stop stop-opacity="1" stop-color="rgb(33.071899%, 59.155273%, 19.999695%)" offset="0.757812"/><stop stop-opacity="1" stop-color="rgb(32.939148%, 59.01947%, 19.999695%)" offset="0.769531"/><stop stop-opacity="1" stop-color="rgb(32.933044%, 58.877563%, 19.993591%)" offset="0.773438"/><stop stop-opacity="1" stop-color="rgb(32.737732%, 58.616638%, 19.798279%)" offset="0.777344"/><stop stop-opacity="1" stop-color="rgb(32.548523%, 58.236694%, 19.60907%)" offset="0.789062"/><stop stop-opacity="1" stop-color="rgb(32.362366%, 57.855225%, 19.60907%)" offset="0.800781"/><stop stop-opacity="1" stop-color="rgb(32.106018%, 57.595825%, 19.60907%)" offset="0.8125"/><stop stop-opacity="1" stop-color="rgb(31.896973%, 57.38678%, 19.60907%)" offset="0.816406"/><stop stop-opacity="1" stop-color="rgb(31.668091%, 57.054138%, 19.60907%)" offset="0.824219"/><stop stop-opacity="1" stop-color="rgb(31.425476%, 56.813049%, 19.654846%)" offset="0.84375"/><stop stop-opacity="1" stop-color="rgb(31.173706%, 56.665039%, 19.802856%)" offset="0.851562"/><stop stop-opacity="1" stop-color="rgb(30.975342%, 56.413269%, 19.952393%)" offset="0.859375"/><stop stop-opacity="1" stop-color="rgb(30.781555%, 56.074524%, 19.999695%)" offset="0.867188"/><stop stop-opacity="1" stop-color="rgb(30.638123%, 55.786133%, 19.999695%)" offset="0.875"/><stop stop-opacity="1" stop-color="rgb(30.589294%, 55.62439%, 19.999695%)" offset="0.890625"/><stop stop-opacity="1" stop-color="rgb(30.393982%, 55.412292%, 19.999695%)" offset="0.894531"/><stop stop-opacity="1" stop-color="rgb(30.194092%, 55.078125%, 20.002747%)" offset="0.90625"/><stop stop-opacity="1" stop-color="rgb(29.995728%, 54.701233%, 20.196533%)" offset="0.910156"/><stop stop-opacity="1" stop-color="rgb(29.798889%, 54.319763%, 20.387268%)" offset="0.917969"/><stop stop-opacity="1" stop-color="rgb(29.699707%, 54.025269%, 20.388794%)" offset="0.925781"/><stop stop-opacity="1" stop-color="rgb(29.50592%, 53.825378%, 20.388794%)" offset="0.933594"/><stop stop-opacity="1" stop-color="rgb(29.28009%, 53.596497%, 20.388794%)" offset="0.949219"/><stop stop-opacity="1" stop-color="rgb(29.03595%, 53.347778%, 20.388794%)" offset="0.960938"/><stop stop-opacity="1" stop-color="rgb(28.819275%, 53.129578%, 20.388794%)" offset="0.96875"/><stop stop-opacity="1" stop-color="rgb(28.672791%, 52.972412%, 20.388794%)" offset="0.976562"/><stop stop-opacity="1" stop-color="rgb(28.62854%, 52.732849%, 20.388794%)" offset="0.980469"/><stop stop-opacity="1" stop-color="rgb(28.62854%, 52.549744%, 20.388794%)" offset="1"/></radialGradient><clipPath id="06e8c5b132"><path d="M 739.183594 257.453125 L 760.761719 257.453125 L 760.761719 279.03125 L 739.183594 279.03125 Z M 739.183594 257.453125 " clip-rule="nonzero"/></clipPath><clipPath id="b6acbbd742"><path d="M 760.761719 268.242188 C 760.761719 274.203125 755.925781 279.03125 749.972656 279.03125 C 744.015625 279.03125 739.183594 274.203125 739.183594 268.242188 C 739.183594 262.285156 744.015625 257.453125 749.972656 257.453125 C 755.925781 257.453125 760.761719 262.285156 760.761719 268.242188 Z M 760.761719 268.242188 " clip-rule="nonzero"/></clipPath><clipPath id="63668e64fb"><path d="M 760.761719 268.242188 C 760.761719 274.203125 755.925781 279.03125 749.972656 279.03125 C 744.015625 279.03125 739.183594 274.203125 739.183594 268.242188 C 739.183594 262.285156 744.015625 257.453125 749.972656 257.453125 C 755.925781 257.453125 760.761719 262.285156 760.761719 268.242188 " clip-rule="nonzero"/></clipPath><clipPath id="16301ed5a7"><path d="M 704 150 L 796 150 L 796 245 L 704 245 Z M 704 150 " clip-rule="nonzero"/></clipPath><clipPath id="c4206b2502"><path d="M 757.167969 237.46875 C 733.007812 237.46875 713.425781 217.886719 713.425781 193.722656 C 713.425781 170.496094 731.539062 151.503906 754.410156 150.074219 C 753.457031 150.019531 752.503906 149.980469 751.53125 149.980469 C 725.363281 149.980469 704.144531 171.203125 704.144531 197.371094 C 704.144531 223.542969 725.363281 244.765625 751.53125 244.765625 C 771.8125 244.765625 789.113281 232.019531 795.875 214.101562 C 788.546875 227.996094 773.964844 237.46875 757.167969 237.46875 Z M 757.167969 237.46875 " clip-rule="nonzero"/></clipPath><clipPath id="7b41bee3d3"><path d="M 757.167969 237.472656 C 733.011719 237.472656 713.425781 217.886719 713.425781 193.722656 C 713.425781 170.488281 731.539062 151.496094 754.414062 150.078125 C 753.457031 150.015625 752.507812 149.980469 751.53125 149.980469 C 725.363281 149.980469 704.148438 171.199219 704.148438 197.367188 C 704.148438 223.546875 725.363281 244.757812 751.53125 244.757812 C 771.816406 244.757812 789.117188 232.011719 795.875 214.097656 C 788.554688 227.996094 773.96875 237.472656 757.167969 237.472656 " clip-rule="nonzero"/></clipPath><clipPath id="d605045ba1"><path d="M 704.160156 245.894531 L 797.046875 244.746094 L 795.855469 148.84375 L 702.972656 149.996094 Z M 704.160156 245.894531 " clip-rule="nonzero"/></clipPath><radialGradient gradientTransform="matrix(-0.0123911, -0.999953, 0.999894, -0.0123919, 759.9201, 314.448936)" gradientUnits="userSpaceOnUse" r="142.72865" cx="0" id="464794e6ad" cy="0" fx="0" fy="0"><stop stop-opacity="1" stop-color="rgb(50.004578%, 79.418945%, 16.468811%)" offset="0"/><stop stop-opacity="1" stop-color="rgb(49.740601%, 79.223633%, 16.40625%)" offset="0.015625"/><stop stop-opacity="1" stop-color="rgb(49.604797%, 79.219055%, 16.273499%)" offset="0.0195312"/><stop stop-opacity="1" stop-color="rgb(49.467468%, 79.212952%, 16.142273%)" offset="0.0234375"/><stop stop-opacity="1" stop-color="rgb(49.208069%, 79.013062%, 16.079712%)" offset="0.0273438"/><stop stop-opacity="1" stop-color="rgb(49.01886%, 78.819275%, 16.079712%)" offset="0.0390625"/><stop stop-opacity="1" stop-color="rgb(48.838806%, 78.639221%, 16.079712%)" offset="0.0507812"/><stop stop-opacity="1" stop-color="rgb(48.64502%, 78.443909%, 16.079712%)" offset="0.0546875"/><stop stop-opacity="1" stop-color="rgb(48.458862%, 78.42865%, 16.249084%)" offset="0.0585938"/><stop stop-opacity="1" stop-color="rgb(48.200989%, 78.367615%, 16.444397%)" offset="0.0625"/><stop stop-opacity="1" stop-color="rgb(48.043823%, 78.237915%, 16.468811%)" offset="0.0664062"/><stop stop-opacity="1" stop-color="rgb(47.906494%, 77.973938%, 16.468811%)" offset="0.0703125"/><stop stop-opacity="1" stop-color="rgb(47.712708%, 77.713013%, 16.468811%)" offset="0.0820312"/><stop stop-opacity="1" stop-color="rgb(47.517395%, 77.513123%, 16.468811%)" offset="0.09375"/><stop stop-opacity="1" stop-color="rgb(47.253418%, 77.304077%, 16.664124%)" offset="0.105469"/><stop stop-opacity="1" stop-color="rgb(47.055054%, 77.044678%, 16.859436%)" offset="0.117188"/><stop stop-opacity="1" stop-color="rgb(46.859741%, 76.731873%, 16.859436%)" offset="0.121094"/><stop stop-opacity="1" stop-color="rgb(46.669006%, 76.541138%, 16.859436%)" offset="0.132812"/><stop stop-opacity="1" stop-color="rgb(46.603394%, 76.409912%, 16.859436%)" offset="0.136719"/><stop stop-opacity="1" stop-color="rgb(46.466064%, 76.271057%, 16.859436%)" offset="0.140625"/><stop stop-opacity="1" stop-color="rgb(46.325684%, 76.139832%, 16.86554%)" offset="0.144531"/><stop stop-opacity="1" stop-color="rgb(46.066284%, 75.88501%, 17.060852%)" offset="0.148438"/><stop stop-opacity="1" stop-color="rgb(45.689392%, 75.497437%, 17.248535%)" offset="0.171875"/><stop stop-opacity="1" stop-color="rgb(45.433044%, 75.296021%, 17.248535%)" offset="0.183594"/><stop stop-opacity="1" stop-color="rgb(45.231628%, 75.221252%, 17.248535%)" offset="0.1875"/><stop stop-opacity="1" stop-color="rgb(45.098877%, 75.088501%, 17.248535%)" offset="0.199219"/><stop stop-opacity="1" stop-color="rgb(45.098877%, 74.961853%, 17.250061%)" offset="0.203125"/><stop stop-opacity="1" stop-color="rgb(45.098877%, 74.899292%, 17.448425%)" offset="0.207031"/><stop stop-opacity="1" stop-color="rgb(44.903564%, 74.703979%, 17.64679%)" offset="0.210938"/><stop stop-opacity="1" stop-color="rgb(44.709778%, 74.334717%, 17.649841%)" offset="0.222656"/><stop stop-opacity="1" stop-color="rgb(44.685364%, 74.118042%, 17.649841%)" offset="0.226562"/><stop stop-opacity="1" stop-color="rgb(44.485474%, 73.901367%, 17.649841%)" offset="0.230469"/><stop stop-opacity="1" stop-color="rgb(44.180298%, 73.596191%, 17.778015%)" offset="0.242188"/><stop stop-opacity="1" stop-color="rgb(43.894958%, 73.306274%, 17.971802%)" offset="0.253906"/><stop stop-opacity="1" stop-color="rgb(43.641663%, 73.051453%, 18.03894%)" offset="0.261719"/><stop stop-opacity="1" stop-color="rgb(43.438721%, 72.947693%, 18.03894%)" offset="0.265625"/><stop stop-opacity="1" stop-color="rgb(43.235779%, 72.833252%, 18.03894%)" offset="0.269531"/><stop stop-opacity="1" stop-color="rgb(43.139648%, 72.537231%, 18.03894%)" offset="0.277344"/><stop stop-opacity="1" stop-color="rgb(43.041992%, 72.251892%, 18.135071%)" offset="0.285156"/><stop stop-opacity="1" stop-color="rgb(42.84668%, 72.064209%, 18.330383%)" offset="0.292969"/><stop stop-opacity="1" stop-color="rgb(42.658997%, 71.864319%, 18.429565%)" offset="0.300781"/><stop stop-opacity="1" stop-color="rgb(42.459106%, 71.664429%, 18.429565%)" offset="0.308594"/><stop stop-opacity="1" stop-color="rgb(42.341614%, 71.461487%, 18.429565%)" offset="0.316406"/><stop stop-opacity="1" stop-color="rgb(42.146301%, 71.166992%, 18.429565%)" offset="0.320312"/><stop stop-opacity="1" stop-color="rgb(41.763306%, 70.783997%, 18.429565%)" offset="0.328125"/><stop stop-opacity="1" stop-color="rgb(41.471863%, 70.492554%, 18.525696%)" offset="0.347656"/><stop stop-opacity="1" stop-color="rgb(41.27655%, 70.297241%, 18.719482%)" offset="0.355469"/><stop stop-opacity="1" stop-color="rgb(41.178894%, 70.097351%, 18.818665%)" offset="0.363281"/><stop stop-opacity="1" stop-color="rgb(41.081238%, 69.897461%, 18.818665%)" offset="0.371094"/><stop stop-opacity="1" stop-color="rgb(40.881348%, 69.708252%, 18.818665%)" offset="0.378906"/><stop stop-opacity="1" stop-color="rgb(40.779114%, 69.522095%, 18.818665%)" offset="0.386719"/><stop stop-opacity="1" stop-color="rgb(40.679932%, 69.319153%, 18.818665%)" offset="0.390625"/><stop stop-opacity="1" stop-color="rgb(40.432739%, 69.062805%, 18.818665%)" offset="0.394531"/><stop stop-opacity="1" stop-color="rgb(40.092468%, 68.722534%, 18.867493%)" offset="0.402344"/><stop stop-opacity="1" stop-color="rgb(39.709473%, 68.336487%, 19.068909%)" offset="0.417969"/><stop stop-opacity="1" stop-color="rgb(39.367676%, 67.990112%, 19.219971%)" offset="0.433594"/><stop stop-opacity="1" stop-color="rgb(39.219666%, 67.739868%, 19.219971%)" offset="0.449219"/><stop stop-opacity="1" stop-color="rgb(39.219666%, 67.451477%, 19.219971%)" offset="0.457031"/><stop stop-opacity="1" stop-color="rgb(39.128113%, 67.160034%, 19.219971%)" offset="0.464844"/><stop stop-opacity="1" stop-color="rgb(38.882446%, 67.01355%, 19.219971%)" offset="0.472656"/><stop stop-opacity="1" stop-color="rgb(38.626099%, 66.867065%, 19.219971%)" offset="0.480469"/><stop stop-opacity="1" stop-color="rgb(38.427734%, 66.665649%, 19.219971%)" offset="0.488281"/><stop stop-opacity="1" stop-color="rgb(38.233948%, 66.468811%, 19.219971%)" offset="0.496094"/><stop stop-opacity="1" stop-color="rgb(38.088989%, 66.195679%, 19.343567%)" offset="0.503906"/><stop stop-opacity="1" stop-color="rgb(38.038635%, 65.957642%, 19.529724%)" offset="0.515625"/><stop stop-opacity="1" stop-color="rgb(37.9776%, 65.826416%, 19.60144%)" offset="0.519531"/><stop stop-opacity="1" stop-color="rgb(37.783813%, 65.623474%, 19.60907%)" offset="0.523438"/><stop stop-opacity="1" stop-color="rgb(37.649536%, 65.42511%, 19.60907%)" offset="0.535156"/><stop stop-opacity="1" stop-color="rgb(37.583923%, 65.167236%, 19.60907%)" offset="0.546875"/><stop stop-opacity="1" stop-color="rgb(37.446594%, 64.901733%, 19.60907%)" offset="0.558594"/><stop stop-opacity="1" stop-color="rgb(37.306213%, 64.764404%, 19.60907%)" offset="0.5625"/><stop stop-opacity="1" stop-color="rgb(37.045288%, 64.501953%, 19.60907%)" offset="0.566406"/><stop stop-opacity="1" stop-color="rgb(36.660767%, 64.120483%, 19.60907%)" offset="0.578125"/><stop stop-opacity="1" stop-color="rgb(36.407471%, 63.864136%, 19.60907%)" offset="0.601562"/><stop stop-opacity="1" stop-color="rgb(36.276245%, 63.726807%, 19.60907%)" offset="0.605469"/><stop stop-opacity="1" stop-color="rgb(36.143494%, 63.589478%, 19.60907%)" offset="0.609375"/><stop stop-opacity="1" stop-color="rgb(36.079407%, 63.330078%, 19.60907%)" offset="0.613281"/><stop stop-opacity="1" stop-color="rgb(35.888672%, 62.948608%, 19.60907%)" offset="0.625"/><stop stop-opacity="1" stop-color="rgb(35.693359%, 62.753296%, 19.60907%)" offset="0.636719"/><stop stop-opacity="1" stop-color="rgb(35.688782%, 62.651062%, 19.60907%)" offset="0.644531"/><stop stop-opacity="1" stop-color="rgb(35.679626%, 62.442017%, 19.60907%)" offset="0.648438"/><stop stop-opacity="1" stop-color="rgb(35.476685%, 62.145996%, 19.60907%)" offset="0.652344"/><stop stop-opacity="1" stop-color="rgb(35.090637%, 61.959839%, 19.60907%)" offset="0.660156"/><stop stop-opacity="1" stop-color="rgb(34.899902%, 61.769104%, 19.60907%)" offset="0.667969"/><stop stop-opacity="1" stop-color="rgb(34.713745%, 61.38916%, 19.60907%)" offset="0.675781"/><stop stop-opacity="1" stop-color="rgb(34.370422%, 61.036682%, 19.804382%)" offset="0.683594"/><stop stop-opacity="1" stop-color="rgb(34.117126%, 60.731506%, 19.950867%)" offset="0.703125"/><stop stop-opacity="1" stop-color="rgb(33.927917%, 60.395813%, 19.807434%)" offset="0.710938"/><stop stop-opacity="1" stop-color="rgb(33.781433%, 60.055542%, 19.66095%)" offset="0.71875"/><stop stop-opacity="1" stop-color="rgb(33.729553%, 59.803772%, 19.60907%)" offset="0.726562"/><stop stop-opacity="1" stop-color="rgb(33.578491%, 59.509277%, 19.755554%)" offset="0.734375"/><stop stop-opacity="1" stop-color="rgb(33.31604%, 59.268188%, 19.950867%)" offset="0.75"/><stop stop-opacity="1" stop-color="rgb(33.071899%, 59.155273%, 19.999695%)" offset="0.757812"/><stop stop-opacity="1" stop-color="rgb(32.939148%, 59.01947%, 19.999695%)" offset="0.769531"/><stop stop-opacity="1" stop-color="rgb(32.933044%, 58.877563%, 19.993591%)" offset="0.773438"/><stop stop-opacity="1" stop-color="rgb(32.737732%, 58.616638%, 19.798279%)" offset="0.777344"/><stop stop-opacity="1" stop-color="rgb(32.548523%, 58.236694%, 19.60907%)" offset="0.789062"/><stop stop-opacity="1" stop-color="rgb(32.362366%, 57.855225%, 19.60907%)" offset="0.800781"/><stop stop-opacity="1" stop-color="rgb(32.106018%, 57.595825%, 19.60907%)" offset="0.8125"/><stop stop-opacity="1" stop-color="rgb(31.896973%, 57.38678%, 19.60907%)" offset="0.816406"/><stop stop-opacity="1" stop-color="rgb(31.668091%, 57.054138%, 19.60907%)" offset="0.824219"/><stop stop-opacity="1" stop-color="rgb(31.425476%, 56.813049%, 19.654846%)" offset="0.84375"/><stop stop-opacity="1" stop-color="rgb(31.173706%, 56.665039%, 19.802856%)" offset="0.851562"/><stop stop-opacity="1" stop-color="rgb(30.975342%, 56.413269%, 19.952393%)" offset="0.859375"/><stop stop-opacity="1" stop-color="rgb(30.781555%, 56.074524%, 19.999695%)" offset="0.867188"/><stop stop-opacity="1" stop-color="rgb(30.638123%, 55.786133%, 19.999695%)" offset="0.875"/><stop stop-opacity="1" stop-color="rgb(30.589294%, 55.62439%, 19.999695%)" offset="0.890625"/><stop stop-opacity="1" stop-color="rgb(30.393982%, 55.412292%, 19.999695%)" offset="0.894531"/><stop stop-opacity="1" stop-color="rgb(30.194092%, 55.078125%, 20.002747%)" offset="0.90625"/><stop stop-opacity="1" stop-color="rgb(29.995728%, 54.701233%, 20.196533%)" offset="0.910156"/><stop stop-opacity="1" stop-color="rgb(29.798889%, 54.319763%, 20.387268%)" offset="0.917969"/><stop stop-opacity="1" stop-color="rgb(29.699707%, 54.025269%, 20.388794%)" offset="0.925781"/><stop stop-opacity="1" stop-color="rgb(29.50592%, 53.825378%, 20.388794%)" offset="0.933594"/><stop stop-opacity="1" stop-color="rgb(29.28009%, 53.596497%, 20.388794%)" offset="0.949219"/><stop stop-opacity="1" stop-color="rgb(29.03595%, 53.347778%, 20.388794%)" offset="0.960938"/><stop stop-opacity="1" stop-color="rgb(28.819275%, 53.129578%, 20.388794%)" offset="0.96875"/><stop stop-opacity="1" stop-color="rgb(28.672791%, 52.972412%, 20.388794%)" offset="0.976562"/><stop stop-opacity="1" stop-color="rgb(28.62854%, 52.732849%, 20.388794%)" offset="0.980469"/><stop stop-opacity="1" stop-color="rgb(28.62854%, 52.549744%, 20.388794%)" offset="1"/></radialGradient></defs><g clip-path="url(#0f87ec6af5)"><path fill="#7ecb2a" d="M 867.914062 1058.261719 C 885.425781 1019.316406 895.171875 976.121094 895.171875 930.640625 C 895.171875 815.242188 826.796875 730.886719 749.972656 655.054688 C 807.496094 598.277344 869.757812 546.277344 911.582031 489.613281 C 854.453125 433.707031 793.382812 382.214844 752.679688 326.019531 C 849.460938 459.644531 1061.527344 566.601562 1061.527344 769.828125 C 1061.527344 900.15625 981.5 1011.777344 867.914062 1058.261719 M 745.414062 328.585938 C 745.421875 328.582031 745.433594 328.566406 745.441406 328.550781 C 745.429688 328.574219 745.425781 328.574219 745.414062 328.585938 M 745.554688 328.402344 C 745.5625 328.390625 745.570312 328.375 745.578125 328.367188 C 745.570312 328.375 745.558594 328.390625 745.554688 328.402344 M 745.714844 328.183594 C 745.714844 328.175781 745.714844 328.183594 745.714844 328.175781 L 745.714844 328.183594 M 745.777344 328.097656 C 745.789062 328.085938 745.800781 328.0625 745.8125 328.050781 C 745.804688 328.054688 745.785156 328.089844 745.777344 328.097656 M 745.914062 327.914062 C 745.925781 327.894531 745.933594 327.886719 745.949219 327.867188 C 745.933594 327.878906 745.925781 327.894531 745.914062 327.914062 M 746.046875 327.730469 C 746.054688 327.714844 746.066406 327.703125 746.078125 327.6875 C 746.066406 327.703125 746.058594 327.710938 746.046875 327.730469 M 746.144531 327.601562 C 746.15625 327.578125 746.164062 327.566406 746.179688 327.550781 C 746.164062 327.566406 746.15625 327.578125 746.144531 327.601562 M 746.273438 327.421875 C 746.289062 327.402344 746.300781 327.382812 746.316406 327.359375 C 746.304688 327.375 746.28125 327.402344 746.273438 327.421875 M 746.398438 327.246094 C 746.421875 327.21875 746.433594 327.199219 746.453125 327.171875 C 746.433594 327.199219 746.417969 327.226562 746.398438 327.246094 M 746.5 327.109375 C 746.53125 327.070312 746.558594 327.027344 746.589844 326.984375 C 746.5625 327.019531 746.523438 327.078125 746.5 327.109375 M 746.628906 326.933594 C 746.65625 326.898438 746.675781 326.863281 746.703125 326.832031 C 746.679688 326.863281 746.652344 326.898438 746.628906 326.933594 M 746.746094 326.769531 C 746.773438 326.738281 746.796875 326.703125 746.820312 326.667969 C 746.796875 326.703125 746.769531 326.738281 746.746094 326.769531 M 746.863281 326.613281 C 746.894531 326.570312 746.921875 326.53125 746.953125 326.492188 C 746.921875 326.53125 746.890625 326.570312 746.863281 326.613281 M 746.992188 326.4375 C 747.015625 326.394531 747.042969 326.363281 747.070312 326.328125 C 747.046875 326.363281 747.015625 326.402344 746.992188 326.4375 M 747.117188 326.261719 C 747.144531 326.226562 747.167969 326.191406 747.195312 326.15625 C 747.171875 326.183594 747.140625 326.230469 747.117188 326.261719 M 747.222656 326.117188 C 747.253906 326.070312 747.289062 326.027344 747.320312 325.980469 C 747.289062 326.019531 747.253906 326.074219 747.222656 326.117188 M 752.671875 326.007812 C 752.65625 325.972656 752.625 325.945312 752.605469 325.921875 C 752.632812 325.945312 752.648438 325.972656 752.671875 326.007812 M 747.351562 325.9375 C 747.382812 325.890625 747.421875 325.84375 747.453125 325.796875 C 747.417969 325.84375 747.386719 325.890625 747.351562 325.9375 M 752.574219 325.863281 C 752.539062 325.824219 752.511719 325.78125 752.484375 325.742188 C 752.511719 325.78125 752.539062 325.824219 752.574219 325.863281 M 747.464844 325.78125 C 747.503906 325.730469 747.539062 325.679688 747.570312 325.632812 C 747.535156 325.679688 747.503906 325.730469 747.464844 325.78125 M 752.429688 325.671875 C 752.40625 325.640625 752.390625 325.613281 752.367188 325.585938 C 752.382812 325.605469 752.414062 325.644531 752.429688 325.671875 M 747.582031 325.621094 C 747.621094 325.5625 747.65625 325.519531 747.695312 325.460938 C 747.660156 325.511719 747.617188 325.570312 747.582031 325.621094 M 752.300781 325.488281 C 752.285156 325.472656 752.265625 325.449219 752.253906 325.429688 C 752.273438 325.453125 752.28125 325.460938 752.300781 325.488281 M 747.703125 325.449219 C 747.738281 325.402344 747.777344 325.347656 747.816406 325.292969 C 747.777344 325.347656 747.738281 325.402344 747.703125 325.449219 M 752.164062 325.304688 C 752.15625 325.292969 752.144531 325.269531 752.132812 325.257812 C 752.136719 325.269531 752.15625 325.300781 752.164062 325.304688 M 747.832031 325.269531 C 747.90625 325.171875 747.976562 325.070312 748.050781 324.964844 C 747.976562 325.070312 747.902344 325.179688 747.832031 325.269531 M 752.035156 325.128906 C 752.035156 325.121094 752.027344 325.109375 752.023438 325.101562 C 752.027344 325.109375 752.035156 325.113281 752.035156 325.128906 M 751.917969 324.964844 C 751.914062 324.953125 751.914062 324.953125 751.90625 324.9375 C 751.914062 324.953125 751.914062 324.960938 751.917969 324.964844 M 748.074219 324.9375 C 748.109375 324.882812 748.144531 324.84375 748.179688 324.789062 C 748.144531 324.84375 748.109375 324.882812 748.074219 324.9375 M 751.796875 324.789062 C 751.789062 324.78125 751.78125 324.773438 751.78125 324.769531 C 751.78125 324.773438 751.789062 324.78125 751.796875 324.789062 M 748.195312 324.769531 C 748.230469 324.714844 748.269531 324.667969 748.304688 324.613281 C 748.265625 324.671875 748.238281 324.714844 748.195312 324.769531 M 748.308594 324.613281 C 748.347656 324.558594 748.386719 324.503906 748.425781 324.449219 C 748.390625 324.496094 748.34375 324.5625 748.308594 324.613281 M 748.429688 324.441406 C 748.464844 324.386719 748.503906 324.339844 748.539062 324.285156 C 748.5 324.347656 748.46875 324.386719 748.429688 324.441406 M 751.429688 324.28125 L 751.421875 324.273438 L 751.429688 324.28125 M 748.554688 324.265625 C 748.59375 324.210938 748.628906 324.164062 748.667969 324.109375 C 748.628906 324.15625 748.589844 324.21875 748.554688 324.265625 M 748.671875 324.101562 C 748.746094 323.992188 748.828125 323.882812 748.90625 323.773438 C 748.828125 323.882812 748.75 323.992188 748.671875 324.101562 M 748.910156 323.761719 C 748.953125 323.714844 748.984375 323.664062 749.019531 323.613281 C 748.984375 323.660156 748.949219 323.714844 748.910156 323.761719 M 749.042969 323.582031 C 749.113281 323.480469 749.1875 323.382812 749.261719 323.277344 C 749.183594 323.382812 749.117188 323.476562 749.042969 323.582031 M 750.707031 323.265625 L 750.699219 323.265625 L 750.707031 323.265625 M 749.273438 323.257812 C 749.308594 323.210938 749.347656 323.15625 749.382812 323.105469 C 749.347656 323.15625 749.308594 323.210938 749.273438 323.257812 M 750.582031 323.101562 C 750.582031 323.09375 750.582031 323.09375 750.578125 323.089844 L 750.582031 323.101562 M 749.398438 323.082031 C 749.433594 323.03125 749.46875 322.984375 749.503906 322.933594 C 749.46875 322.984375 749.433594 323.03125 749.398438 323.082031 M 749.519531 322.910156 C 749.550781 322.863281 749.585938 322.816406 749.621094 322.765625 C 749.585938 322.816406 749.554688 322.855469 749.519531 322.910156 M 749.632812 322.753906 C 749.667969 322.699219 749.703125 322.652344 749.734375 322.605469 C 749.703125 322.652344 749.667969 322.699219 749.632812 322.753906 M 750.230469 322.597656 C 750.230469 322.589844 750.226562 322.582031 750.21875 322.578125 C 750.226562 322.589844 750.226562 322.589844 750.230469 322.597656 M 749.757812 322.570312 C 749.792969 322.523438 749.828125 322.480469 749.859375 322.425781 C 749.828125 322.480469 749.792969 322.523438 749.757812 322.570312 M 750.109375 322.425781 C 750.109375 322.421875 750.101562 322.414062 750.101562 322.40625 C 750.101562 322.414062 750.101562 322.414062 750.109375 322.425781 M 749.878906 322.398438 C 749.914062 322.351562 749.949219 322.300781 749.984375 322.25 C 749.949219 322.300781 749.914062 322.351562 749.878906 322.398438 " fill-opacity="1" fill-rule="nonzero"/></g><g clip-path="url(#8c486cdf07)"><path fill="#559f34" d="M 632.027344 1058.261719 C 518.445312 1011.777344 438.414062 900.15625 438.414062 769.828125 C 438.414062 567.914062 647.792969 461.011719 745.414062 328.585938 C 704.722656 383.792969 644.621094 434.558594 588.359375 489.613281 C 630.183594 546.277344 692.449219 598.277344 749.972656 655.054688 C 673.148438 730.886719 604.769531 815.242188 604.769531 930.640625 C 604.769531 976.121094 614.519531 1019.316406 632.027344 1058.261719 M 745.441406 328.550781 C 745.476562 328.503906 745.515625 328.453125 745.554688 328.402344 C 745.515625 328.453125 745.480469 328.5 745.441406 328.550781 M 745.578125 328.367188 C 745.625 328.300781 745.664062 328.246094 745.714844 328.183594 C 745.671875 328.242188 745.621094 328.308594 745.578125 328.367188 M 745.714844 328.175781 C 745.738281 328.152344 745.753906 328.132812 745.777344 328.097656 C 745.757812 328.125 745.734375 328.152344 745.714844 328.175781 M 745.8125 328.050781 C 745.847656 328 745.875 327.960938 745.914062 327.914062 C 745.878906 327.960938 745.84375 328 745.8125 328.050781 M 745.949219 327.867188 C 745.976562 327.824219 746.015625 327.769531 746.046875 327.730469 C 746.015625 327.777344 745.980469 327.820312 745.949219 327.867188 M 746.078125 327.6875 C 746.101562 327.652344 746.121094 327.628906 746.144531 327.601562 C 746.121094 327.628906 746.097656 327.652344 746.078125 327.6875 M 746.179688 327.550781 C 746.207031 327.511719 746.242188 327.464844 746.273438 327.421875 C 746.238281 327.464844 746.207031 327.511719 746.179688 327.550781 M 746.316406 327.359375 C 746.347656 327.320312 746.367188 327.285156 746.398438 327.246094 C 746.371094 327.28125 746.34375 327.328125 746.316406 327.359375 M 746.453125 327.171875 C 746.472656 327.152344 746.484375 327.128906 746.5 327.109375 C 746.488281 327.128906 746.46875 327.152344 746.453125 327.171875 M 746.589844 326.984375 C 746.605469 326.96875 746.613281 326.960938 746.628906 326.933594 C 746.617188 326.945312 746.601562 326.972656 746.589844 326.984375 M 746.703125 326.832031 C 746.714844 326.816406 746.734375 326.785156 746.746094 326.769531 C 746.730469 326.789062 746.71875 326.8125 746.703125 326.832031 M 746.820312 326.667969 C 746.839844 326.644531 746.84375 326.632812 746.863281 326.613281 C 746.847656 326.628906 746.832031 326.652344 746.820312 326.667969 M 746.953125 326.492188 C 746.964844 326.46875 746.980469 326.449219 746.992188 326.4375 C 746.980469 326.449219 746.964844 326.46875 746.953125 326.492188 M 747.070312 326.328125 C 747.085938 326.300781 747.097656 326.285156 747.117188 326.261719 C 747.101562 326.285156 747.085938 326.304688 747.070312 326.328125 M 747.195312 326.15625 C 747.207031 326.136719 747.210938 326.128906 747.222656 326.117188 C 747.214844 326.121094 747.203125 326.144531 747.195312 326.15625 M 752.679688 326.019531 L 752.671875 326.007812 C 752.671875 326.011719 752.679688 326.011719 752.679688 326.019531 M 747.320312 325.980469 C 747.332031 325.964844 747.339844 325.953125 747.351562 325.9375 C 747.339844 325.953125 747.328125 325.964844 747.320312 325.980469 M 752.605469 325.921875 C 752.59375 325.898438 752.578125 325.886719 752.574219 325.863281 C 752.578125 325.886719 752.59375 325.898438 752.605469 325.921875 M 747.453125 325.796875 L 747.464844 325.78125 C 747.460938 325.789062 747.460938 325.789062 747.453125 325.796875 M 752.484375 325.742188 C 752.464844 325.714844 752.449219 325.695312 752.429688 325.671875 C 752.441406 325.695312 752.464844 325.71875 752.484375 325.742188 M 747.570312 325.632812 C 747.578125 325.625 747.574219 325.625 747.582031 325.621094 C 747.578125 325.625 747.574219 325.632812 747.570312 325.632812 M 752.367188 325.585938 C 752.339844 325.550781 752.320312 325.523438 752.300781 325.488281 C 752.320312 325.519531 752.339844 325.550781 752.367188 325.585938 M 747.695312 325.460938 C 747.699219 325.453125 747.699219 325.453125 747.703125 325.449219 C 747.699219 325.453125 747.699219 325.453125 747.695312 325.460938 M 752.253906 325.429688 C 752.222656 325.386719 752.199219 325.347656 752.164062 325.304688 C 752.199219 325.347656 752.222656 325.386719 752.253906 325.429688 M 747.816406 325.292969 C 747.820312 325.285156 747.828125 325.28125 747.832031 325.269531 C 747.828125 325.28125 747.820312 325.285156 747.816406 325.292969 M 752.132812 325.257812 C 752.097656 325.210938 752.074219 325.179688 752.035156 325.128906 C 752.066406 325.171875 752.101562 325.21875 752.132812 325.257812 M 752.023438 325.101562 C 751.988281 325.0625 751.953125 325.007812 751.917969 324.964844 C 751.953125 325.011719 751.988281 325.054688 752.023438 325.101562 M 748.050781 324.964844 C 748.054688 324.960938 748.070312 324.945312 748.074219 324.9375 C 748.066406 324.945312 748.058594 324.960938 748.050781 324.964844 M 751.90625 324.9375 C 751.867188 324.890625 751.832031 324.84375 751.796875 324.789062 C 751.832031 324.839844 751.871094 324.890625 751.90625 324.9375 M 748.179688 324.789062 C 748.183594 324.78125 748.1875 324.773438 748.195312 324.769531 C 748.1875 324.773438 748.183594 324.78125 748.179688 324.789062 M 751.78125 324.769531 C 751.660156 324.605469 751.542969 324.441406 751.429688 324.28125 C 751.542969 324.441406 751.660156 324.605469 751.78125 324.769531 M 748.304688 324.613281 L 748.308594 324.613281 L 748.304688 324.613281 M 748.425781 324.449219 L 748.429688 324.441406 L 748.425781 324.449219 M 748.539062 324.285156 C 748.542969 324.28125 748.550781 324.273438 748.554688 324.265625 C 748.550781 324.273438 748.542969 324.28125 748.539062 324.285156 M 751.421875 324.273438 C 751.300781 324.09375 751.191406 323.945312 751.0625 323.769531 C 751.183594 323.9375 751.300781 324.101562 751.421875 324.273438 M 748.667969 324.109375 L 748.671875 324.101562 C 748.667969 324.101562 748.667969 324.109375 748.667969 324.109375 M 748.90625 323.773438 C 748.910156 323.769531 748.90625 323.773438 748.910156 323.761719 C 748.910156 323.769531 748.90625 323.773438 748.90625 323.773438 M 751.0625 323.769531 C 750.945312 323.605469 750.824219 323.429688 750.707031 323.265625 C 750.824219 323.433594 750.945312 323.597656 751.0625 323.769531 M 749.019531 323.613281 C 749.027344 323.605469 749.035156 323.589844 749.042969 323.582031 C 749.035156 323.589844 749.027344 323.605469 749.019531 323.613281 M 749.261719 323.277344 L 749.273438 323.257812 C 749.269531 323.265625 749.265625 323.273438 749.261719 323.277344 M 750.699219 323.265625 C 750.660156 323.203125 750.625 323.15625 750.582031 323.101562 C 750.625 323.15625 750.667969 323.203125 750.699219 323.265625 M 749.382812 323.105469 C 749.386719 323.09375 749.390625 323.09375 749.398438 323.082031 C 749.394531 323.09375 749.386719 323.101562 749.382812 323.105469 M 750.578125 323.089844 C 750.460938 322.921875 750.347656 322.761719 750.230469 322.597656 C 750.347656 322.761719 750.460938 322.921875 750.578125 323.089844 M 749.503906 322.933594 C 749.511719 322.921875 749.515625 322.917969 749.519531 322.910156 C 749.511719 322.917969 749.511719 322.921875 749.503906 322.933594 M 749.621094 322.765625 C 749.625 322.761719 749.625 322.761719 749.632812 322.753906 C 749.628906 322.753906 749.621094 322.765625 749.621094 322.765625 M 749.734375 322.605469 C 749.742188 322.597656 749.753906 322.582031 749.757812 322.570312 C 749.75 322.582031 749.742188 322.589844 749.734375 322.605469 M 750.21875 322.578125 C 750.183594 322.53125 750.144531 322.472656 750.109375 322.425781 C 750.144531 322.472656 750.183594 322.53125 750.21875 322.578125 M 749.859375 322.425781 C 749.867188 322.421875 749.875 322.40625 749.878906 322.398438 C 749.871094 322.414062 749.867188 322.421875 749.859375 322.425781 M 750.101562 322.40625 C 750.058594 322.359375 750.019531 322.300781 749.984375 322.25 C 750.027344 322.304688 750.058594 322.351562 750.101562 322.40625 " fill-opacity="1" fill-rule="nonzero"/></g><path fill="#347832" d="M 749.972656 655.054688 C 692.449219 598.277344 630.183594 546.277344 588.359375 489.613281 C 644.621094 434.558594 704.722656 383.792969 745.414062 328.585938 C 745.425781 328.574219 745.429688 328.574219 745.441406 328.550781 C 745.480469 328.5 745.515625 328.453125 745.554688 328.402344 C 745.558594 328.390625 745.570312 328.375 745.578125 328.367188 C 745.621094 328.308594 745.671875 328.242188 745.714844 328.183594 L 745.714844 328.175781 C 745.734375 328.152344 745.757812 328.125 745.777344 328.097656 C 745.785156 328.089844 745.804688 328.054688 745.8125 328.050781 C 745.84375 328 745.878906 327.960938 745.914062 327.914062 C 745.925781 327.894531 745.933594 327.878906 745.949219 327.867188 C 745.980469 327.820312 746.015625 327.777344 746.046875 327.730469 C 746.058594 327.710938 746.066406 327.703125 746.078125 327.6875 C 746.097656 327.652344 746.121094 327.628906 746.144531 327.601562 C 746.15625 327.578125 746.164062 327.566406 746.179688 327.550781 C 746.207031 327.511719 746.238281 327.464844 746.273438 327.421875 C 746.28125 327.402344 746.304688 327.375 746.316406 327.359375 C 746.34375 327.328125 746.371094 327.28125 746.398438 327.246094 C 746.417969 327.226562 746.433594 327.199219 746.453125 327.171875 C 746.46875 327.152344 746.488281 327.128906 746.5 327.109375 C 746.523438 327.078125 746.5625 327.019531 746.589844 326.984375 C 746.601562 326.972656 746.617188 326.945312 746.628906 326.933594 C 746.652344 326.898438 746.679688 326.863281 746.703125 326.832031 C 746.71875 326.8125 746.730469 326.789062 746.746094 326.769531 C 746.769531 326.738281 746.796875 326.703125 746.820312 326.667969 C 746.832031 326.652344 746.847656 326.628906 746.863281 326.613281 C 746.890625 326.570312 746.921875 326.53125 746.953125 326.492188 C 746.964844 326.46875 746.980469 326.449219 746.992188 326.4375 C 747.015625 326.402344 747.046875 326.363281 747.070312 326.328125 C 747.085938 326.304688 747.101562 326.285156 747.117188 326.261719 C 747.140625 326.230469 747.171875 326.183594 747.195312 326.15625 C 747.203125 326.144531 747.214844 326.121094 747.222656 326.117188 C 747.253906 326.074219 747.289062 326.019531 747.320312 325.980469 C 747.328125 325.964844 747.339844 325.953125 747.351562 325.9375 C 747.386719 325.890625 747.417969 325.84375 747.453125 325.796875 C 747.460938 325.789062 747.460938 325.789062 747.464844 325.78125 C 747.503906 325.730469 747.535156 325.679688 747.570312 325.632812 C 747.574219 325.632812 747.578125 325.625 747.582031 325.621094 C 747.617188 325.570312 747.660156 325.511719 747.695312 325.460938 C 747.699219 325.453125 747.699219 325.453125 747.703125 325.449219 C 747.738281 325.402344 747.777344 325.347656 747.816406 325.292969 C 747.820312 325.285156 747.828125 325.28125 747.832031 325.269531 C 747.902344 325.179688 747.976562 325.070312 748.050781 324.964844 C 748.058594 324.960938 748.066406 324.945312 748.074219 324.9375 C 748.109375 324.882812 748.144531 324.84375 748.179688 324.789062 C 748.183594 324.78125 748.1875 324.773438 748.195312 324.769531 C 748.238281 324.714844 748.265625 324.671875 748.304688 324.613281 L 748.308594 324.613281 C 748.34375 324.5625 748.390625 324.496094 748.425781 324.449219 L 748.429688 324.441406 C 748.46875 324.386719 748.5 324.347656 748.539062 324.285156 C 748.542969 324.28125 748.550781 324.273438 748.554688 324.265625 C 748.589844 324.21875 748.628906 324.15625 748.667969 324.109375 C 748.667969 324.109375 748.667969 324.101562 748.671875 324.101562 C 748.75 323.992188 748.828125 323.882812 748.90625 323.773438 C 748.90625 323.773438 748.910156 323.769531 748.910156 323.761719 C 748.949219 323.714844 748.984375 323.660156 749.019531 323.613281 C 749.027344 323.605469 749.035156 323.589844 749.042969 323.582031 C 749.117188 323.476562 749.183594 323.382812 749.261719 323.277344 C 749.265625 323.273438 749.269531 323.265625 749.273438 323.257812 C 749.308594 323.210938 749.347656 323.15625 749.382812 323.105469 C 749.386719 323.101562 749.394531 323.09375 749.398438 323.082031 C 749.433594 323.03125 749.46875 322.984375 749.503906 322.933594 C 749.511719 322.921875 749.511719 322.917969 749.519531 322.910156 C 749.554688 322.855469 749.585938 322.816406 749.621094 322.765625 C 749.621094 322.765625 749.628906 322.753906 749.632812 322.753906 C 749.667969 322.699219 749.703125 322.652344 749.734375 322.605469 C 749.742188 322.589844 749.75 322.582031 749.757812 322.570312 C 749.792969 322.523438 749.828125 322.480469 749.859375 322.425781 C 749.867188 322.421875 749.871094 322.414062 749.878906 322.398438 C 749.914062 322.351562 749.949219 322.300781 749.984375 322.25 C 750.019531 322.300781 750.058594 322.359375 750.101562 322.40625 C 750.101562 322.414062 750.109375 322.421875 750.109375 322.425781 C 750.144531 322.472656 750.183594 322.53125 750.21875 322.578125 C 750.226562 322.582031 750.230469 322.589844 750.230469 322.597656 C 750.347656 322.761719 750.460938 322.921875 750.578125 323.089844 C 750.582031 323.09375 750.582031 323.09375 750.582031 323.101562 C 750.625 323.15625 750.660156 323.203125 750.699219 323.265625 L 750.707031 323.265625 C 750.824219 323.429688 750.945312 323.605469 751.0625 323.769531 C 751.191406 323.945312 751.300781 324.09375 751.421875 324.273438 L 751.429688 324.28125 C 751.542969 324.441406 751.660156 324.605469 751.78125 324.769531 C 751.78125 324.773438 751.789062 324.78125 751.796875 324.789062 C 751.832031 324.84375 751.867188 324.890625 751.90625 324.9375 C 751.914062 324.953125 751.914062 324.953125 751.917969 324.964844 C 751.953125 325.007812 751.988281 325.0625 752.023438 325.101562 C 752.027344 325.109375 752.035156 325.121094 752.035156 325.128906 C 752.074219 325.179688 752.097656 325.210938 752.132812 325.257812 C 752.144531 325.269531 752.15625 325.292969 752.164062 325.304688 C 752.199219 325.347656 752.222656 325.386719 752.253906 325.429688 C 752.265625 325.449219 752.285156 325.472656 752.300781 325.488281 C 752.320312 325.523438 752.339844 325.550781 752.367188 325.585938 C 752.390625 325.613281 752.40625 325.640625 752.429688 325.671875 C 752.449219 325.695312 752.464844 325.714844 752.484375 325.742188 C 752.511719 325.78125 752.539062 325.824219 752.574219 325.863281 C 752.578125 325.886719 752.59375 325.898438 752.605469 325.921875 C 752.625 325.945312 752.65625 325.972656 752.671875 326.007812 L 752.679688 326.019531 C 793.382812 382.214844 854.453125 433.707031 911.582031 489.613281 C 869.757812 546.277344 807.496094 598.277344 749.972656 655.054688 " fill-opacity="1" fill-rule="nonzero"/><g clip-path="url(#30ff5e0db6)"><g clip-path="url(#c323c7b837)"><g clip-path="url(#dc2f62e816)"><path fill="url(#24a2529e12)" d="M 763.222656 291.445312 L 736.726562 291.445312 L 736.726562 317.941406 L 763.222656 317.941406 Z M 763.222656 291.445312 " fill-rule="nonzero"/></g></g></g><g clip-path="url(#06e8c5b132)"><g clip-path="url(#b6acbbd742)"><g clip-path="url(#63668e64fb)"><path fill="url(#24a2529e12)" d="M 760.761719 257.453125 L 739.183594 257.453125 L 739.183594 279.03125 L 760.761719 279.03125 Z M 760.761719 257.453125 " fill-rule="nonzero"/></g></g></g><g clip-path="url(#16301ed5a7)"><g clip-path="url(#c4206b2502)"><g clip-path="url(#7b41bee3d3)"><g clip-path="url(#d605045ba1)"><path fill="url(#464794e6ad)" d="M 704.164062 245.894531 L 797.046875 244.746094 L 795.859375 148.863281 L 702.976562 150.015625 Z M 704.164062 245.894531 " fill-rule="nonzero"/></g></g></g></g><g fill="#347832" fill-opacity="1"><g transform="translate(360.613097, 1328.386978)"><g><path d="M 124 -18.90625 L 124 0 L 108.296875 0 C 101.160156 0 94.914062 -1.898438 89.5625 -5.703125 C 84.320312 -1.898438 77.601562 0 69.40625 0 L 52.453125 0 C 48.046875 0 44.625 1.039062 42.1875 3.125 C 39.75 5.207031 38.53125 7.851562 38.53125 11.0625 L 38.53125 28.1875 C 38.53125 34.375 36.953125 39.488281 33.796875 43.53125 C 30.648438 47.570312 26.519531 49.59375 21.40625 49.59375 C 18.195312 49.59375 15.519531 48.878906 13.375 47.453125 C 11.238281 46.023438 9.664062 44.359375 8.65625 42.453125 C 7.644531 40.554688 7.140625 39.015625 7.140625 37.828125 C 7.378906 37.703125 8.238281 37.34375 9.71875 36.75 C 11.207031 36.15625 12.515625 34.726562 13.640625 32.46875 C 14.773438 30.207031 15.34375 27.175781 15.34375 23.375 L 15.34375 12.84375 C 15.34375 8.320312 16.410156 3.328125 18.546875 -2.140625 C 20.691406 -7.609375 24.378906 -11.890625 29.609375 -14.984375 L 29.609375 -41.21875 C 29.609375 -53.46875 30.796875 -62.800781 33.171875 -69.21875 C 35.554688 -75.644531 39.097656 -79.988281 43.796875 -82.25 C 48.492188 -84.507812 55.003906 -85.640625 63.328125 -85.640625 C 70.703125 -85.640625 77.210938 -84.65625 82.859375 -82.6875 C 88.515625 -80.726562 93.304688 -76.535156 97.234375 -70.109375 C 101.160156 -63.691406 103.125 -54.359375 103.125 -42.109375 C 103.125 -32.828125 101.929688 -25.09375 99.546875 -18.90625 Z M 69.046875 -18.90625 C 73.328125 -18.90625 76.207031 -21.375 77.6875 -26.3125 C 79.175781 -31.25 79.921875 -36.867188 79.921875 -43.171875 C 79.921875 -51.023438 78.878906 -56.910156 76.796875 -60.828125 C 74.722656 -64.753906 71.007812 -66.71875 65.65625 -66.71875 C 62.207031 -66.71875 59.203125 -65.882812 56.640625 -64.21875 C 54.085938 -62.5625 52.8125 -59.890625 52.8125 -56.203125 L 52.8125 -18.90625 Z M 69.046875 -18.90625 "/></g></g></g><g fill="#347832" fill-opacity="1"><g transform="translate(484.608036, 1328.386978)"><g><path d="M 60.125 -18.90625 L 60.125 0 L 50.3125 0 C 43.882812 0 38.296875 -1.546875 33.546875 -4.640625 L 33.71875 -4.8125 C 29.914062 -1.601562 25.21875 0 19.625 0 L 0 0 L 0 -18.90625 L 11.953125 -18.90625 C 14.453125 -18.90625 16.351562 -19.882812 17.65625 -21.84375 C 18.96875 -23.8125 19.625 -26.695312 19.625 -30.5 L 19.625 -91.515625 C 19.625 -96.273438 18.910156 -99.609375 17.484375 -101.515625 C 16.054688 -103.421875 14.75 -104.609375 13.5625 -105.078125 C 12.375 -105.554688 11.660156 -105.851562 11.421875 -105.96875 C 11.421875 -107.28125 11.925781 -108.859375 12.9375 -110.703125 C 13.945312 -112.546875 15.519531 -114.179688 17.65625 -115.609375 C 19.800781 -117.035156 22.421875 -117.75 25.515625 -117.75 C 30.742188 -117.75 34.929688 -115.753906 38.078125 -111.765625 C 41.234375 -107.785156 42.8125 -102.644531 42.8125 -96.34375 L 42.8125 -28.71875 C 42.8125 -25.269531 42.457031 -22 41.75 -18.90625 Z M 60.125 -18.90625 "/></g></g></g><g fill="#347832" fill-opacity="1"><g transform="translate(544.732209, 1328.386978)"><g><path d="M 182.6875 -18.90625 L 182.6875 0 L 160.203125 0 C 153.191406 0 147.128906 -1.785156 142.015625 -5.359375 C 136.304688 -1.785156 129.523438 0 121.671875 0 L 119.359375 0 C 107.941406 0 98.898438 -3.445312 92.234375 -10.34375 C 90.566406 -7.613281 88.273438 -5.207031 85.359375 -3.125 C 82.453125 -1.039062 78.738281 0 74.21875 0 L 47.640625 0 C 41.453125 0 35.625 -2.082031 30.15625 -6.25 C 27.414062 -4.101562 24.914062 -2.523438 22.65625 -1.515625 C 20.394531 -0.503906 17.539062 0 14.09375 0 L 0 0 L 0 -18.90625 L 10.53125 -18.90625 C 12.789062 -18.90625 14.632812 -20.332031 16.0625 -23.1875 C 17.488281 -26.039062 18.203125 -29.3125 18.203125 -33 L 18.203125 -62.984375 C 18.203125 -67.023438 18.914062 -70.175781 20.34375 -72.4375 C 21.769531 -74.695312 24.921875 -75.828125 29.796875 -75.828125 C 34.671875 -75.828125 37.820312 -74.695312 39.25 -72.4375 C 40.675781 -70.175781 41.390625 -67.023438 41.390625 -62.984375 L 41.390625 -30.6875 C 41.390625 -26.882812 42.039062 -24 43.34375 -22.03125 C 44.65625 -20.070312 46.503906 -19.03125 48.890625 -18.90625 L 67.4375 -18.90625 C 70.644531 -18.90625 72.8125 -20.332031 73.9375 -23.1875 C 75.070312 -26.039062 75.640625 -29.253906 75.640625 -32.828125 L 75.640625 -67.078125 C 75.640625 -71.835938 76.800781 -75.195312 79.125 -77.15625 C 81.445312 -79.125 84.148438 -80.109375 87.234375 -80.109375 C 90.328125 -80.109375 93.035156 -79.125 95.359375 -77.15625 C 97.679688 -75.195312 98.84375 -71.835938 98.84375 -67.078125 L 98.84375 -32.828125 C 98.84375 -23.546875 100.863281 -18.90625 104.90625 -18.90625 L 122.921875 -18.90625 C 126.367188 -18.90625 129.3125 -21.191406 131.75 -25.765625 C 134.1875 -30.347656 135.40625 -36.328125 135.40625 -43.703125 C 135.40625 -52.628906 134.007812 -59.828125 131.21875 -65.296875 C 128.425781 -70.765625 125.363281 -74.15625 122.03125 -75.46875 C 122.382812 -78.082031 123.71875 -80.429688 126.03125 -82.515625 C 128.351562 -84.597656 131.71875 -85.640625 136.125 -85.640625 C 143.375 -85.640625 148.929688 -82.367188 152.796875 -75.828125 C 156.671875 -69.285156 158.609375 -59.648438 158.609375 -46.921875 C 158.609375 -35.503906 156.820312 -26.164062 153.25 -18.90625 Z M 182.6875 -18.90625 "/></g></g></g><g fill="#347832" fill-opacity="1"><g transform="translate(727.424033, 1328.386978)"><g><path d="M 94.015625 -18.90625 L 94.015625 0 L 89.03125 0 C 82.25 0 76.125 -1.84375 70.65625 -5.53125 C 65.300781 -1.601562 58.457031 0.359375 50.125 0.359375 C 43.707031 0.359375 38.179688 -0.945312 33.546875 -3.5625 C 31.878906 -2.613281 29.644531 -1.78125 26.84375 -1.0625 C 24.050781 -0.351562 21.226562 0 18.375 0 L 0 0 L 0 -18.90625 L 10.34375 -18.90625 L 10.34375 -41.21875 C 10.34375 -53.46875 11.53125 -62.800781 13.90625 -69.21875 C 16.289062 -75.644531 19.832031 -79.988281 24.53125 -82.25 C 29.226562 -84.507812 35.738281 -85.640625 44.0625 -85.640625 C 51.4375 -85.640625 57.945312 -84.65625 63.59375 -82.6875 C 69.25 -80.726562 74.035156 -76.535156 77.953125 -70.109375 C 81.878906 -63.691406 83.84375 -54.359375 83.84375 -42.109375 C 83.84375 -32.828125 82.65625 -25.09375 80.28125 -18.90625 Z M 49.78125 -18.90625 C 54.0625 -18.90625 56.941406 -21.375 58.421875 -26.3125 C 59.910156 -31.25 60.65625 -36.867188 60.65625 -43.171875 C 60.65625 -51.023438 59.613281 -56.910156 57.53125 -60.828125 C 55.445312 -64.753906 51.734375 -66.71875 46.390625 -66.71875 C 42.941406 -66.71875 39.9375 -65.882812 37.375 -64.21875 C 34.820312 -62.5625 33.546875 -59.890625 33.546875 -56.203125 L 33.546875 -18.90625 Z M 49.78125 -18.90625 "/></g></g></g><g fill="#347832" fill-opacity="1"><g transform="translate(821.446095, 1328.386978)"><g><path d="M 0 -18.90625 L 11.953125 -18.90625 C 14.453125 -18.90625 16.351562 -19.882812 17.65625 -21.84375 C 18.96875 -23.8125 19.625 -26.695312 19.625 -30.5 L 19.625 -91.515625 C 19.625 -96.273438 18.910156 -99.609375 17.484375 -101.515625 C 16.054688 -103.421875 14.75 -104.609375 13.5625 -105.078125 C 12.375 -105.554688 11.660156 -105.851562 11.421875 -105.96875 C 11.421875 -107.28125 11.925781 -108.859375 12.9375 -110.703125 C 13.945312 -112.546875 15.519531 -114.179688 17.65625 -115.609375 C 19.800781 -117.035156 22.421875 -117.75 25.515625 -117.75 C 30.742188 -117.75 34.929688 -115.753906 38.078125 -111.765625 C 41.234375 -107.785156 42.8125 -102.644531 42.8125 -96.34375 L 42.8125 -28.71875 C 42.8125 -20.507812 40.816406 -13.671875 36.828125 -8.203125 C 32.847656 -2.734375 27.113281 0 19.625 0 L 0 0 Z M 0 -18.90625 "/></g></g></g><g fill="#347832" fill-opacity="1"><g transform="translate(875.860015, 1328.386978)"><g><path d="M 28.71875 0 C 24.675781 0 21.734375 -1.1875 19.890625 -3.5625 C 18.046875 -5.945312 17.125 -8.800781 17.125 -12.125 L 17.125 -91.515625 C 17.125 -96.273438 16.410156 -99.609375 14.984375 -101.515625 C 13.554688 -103.421875 12.25 -104.609375 11.0625 -105.078125 C 9.875 -105.554688 9.160156 -105.851562 8.921875 -105.96875 C 8.921875 -107.15625 9.425781 -108.703125 10.4375 -110.609375 C 11.445312 -112.515625 13.019531 -114.179688 15.15625 -115.609375 C 17.300781 -117.035156 19.976562 -117.75 23.1875 -117.75 C 28.300781 -117.75 32.429688 -115.722656 35.578125 -111.671875 C 38.734375 -107.628906 40.3125 -102.519531 40.3125 -96.34375 L 40.3125 -11.78125 C 40.3125 -8.5625 39.390625 -5.789062 37.546875 -3.46875 C 35.710938 -1.15625 32.769531 0 28.71875 0 Z M 28.71875 0 "/></g></g></g><g fill="#347832" fill-opacity="1"><g transform="translate(925.100092, 1328.386978)"><g/></g></g><g fill="#347832" fill-opacity="1"><g transform="translate(969.701651, 1328.386978)"><g><path d="M 40.3125 0 C 32.820312 0 27.113281 -2.703125 23.1875 -8.109375 C 19.269531 -13.523438 17.25 -20.335938 17.125 -28.546875 L 17.125 -91.515625 C 17.125 -96.273438 16.410156 -99.609375 14.984375 -101.515625 C 13.554688 -103.421875 12.25 -104.609375 11.0625 -105.078125 C 9.875 -105.554688 9.160156 -105.851562 8.921875 -105.96875 C 8.921875 -107.15625 9.425781 -108.703125 10.4375 -110.609375 C 11.445312 -112.515625 13.019531 -114.179688 15.15625 -115.609375 C 17.300781 -117.035156 19.976562 -117.75 23.1875 -117.75 C 28.300781 -117.75 32.429688 -115.722656 35.578125 -111.671875 C 38.734375 -107.628906 40.3125 -102.519531 40.3125 -96.34375 L 40.3125 -30.328125 C 40.3125 -26.523438 40.96875 -23.671875 42.28125 -21.765625 C 43.59375 -19.859375 45.492188 -18.90625 47.984375 -18.90625 L 56.90625 -18.90625 L 56.90625 0 Z M 40.3125 0 "/></g></g></g><g fill="#347832" fill-opacity="1"><g transform="translate(1026.614488, 1328.386978)"><g><path d="M 0 -18.90625 L 16.40625 -18.90625 C 19.863281 -18.90625 22.78125 -21.222656 25.15625 -25.859375 C 27.53125 -30.503906 28.71875 -37.226562 28.71875 -46.03125 C 28.71875 -51.976562 28.242188 -56.703125 27.296875 -60.203125 C 26.347656 -63.710938 25.039062 -66.445312 23.375 -68.40625 C 21.707031 -70.375 19.445312 -72.488281 16.59375 -74.75 C 16.59375 -76.175781 17.125 -77.75 18.1875 -79.46875 C 19.257812 -81.195312 20.894531 -82.65625 23.09375 -83.84375 C 25.300781 -85.039062 27.953125 -85.640625 31.046875 -85.640625 C 37.828125 -85.640625 43 -82.546875 46.5625 -76.359375 C 50.132812 -70.171875 51.921875 -61.726562 51.921875 -51.03125 C 51.921875 -41.988281 50.640625 -33.570312 48.078125 -25.78125 C 45.523438 -17.988281 41.597656 -11.742188 36.296875 -7.046875 C 31.003906 -2.347656 24.492188 0 16.765625 0 L 0 0 Z M 31.40625 -97.234375 C 27.71875 -97.234375 24.59375 -98.507812 22.03125 -101.0625 C 19.476562 -103.625 18.203125 -106.628906 18.203125 -110.078125 C 18.203125 -113.640625 19.476562 -116.671875 22.03125 -119.171875 C 24.59375 -121.671875 27.71875 -122.921875 31.40625 -122.921875 C 34.851562 -122.921875 37.851562 -121.671875 40.40625 -119.171875 C 42.96875 -116.671875 44.25 -113.640625 44.25 -110.078125 C 44.25 -106.628906 42.96875 -103.625 40.40625 -101.0625 C 37.851562 -98.507812 34.851562 -97.234375 31.40625 -97.234375 Z M 31.40625 -97.234375 "/></g></g></g><g fill="#347832" fill-opacity="1"><g transform="translate(1090.127086, 1328.386978)"><g><path d="M 28.71875 0 C 24.675781 0 21.734375 -1.1875 19.890625 -3.5625 C 18.046875 -5.945312 17.125 -8.800781 17.125 -12.125 L 17.125 -91.515625 C 17.125 -96.273438 16.410156 -99.609375 14.984375 -101.515625 C 13.554688 -103.421875 12.25 -104.609375 11.0625 -105.078125 C 9.875 -105.554688 9.160156 -105.851562 8.921875 -105.96875 C 8.921875 -107.15625 9.425781 -108.703125 10.4375 -110.609375 C 11.445312 -112.515625 13.019531 -114.179688 15.15625 -115.609375 C 17.300781 -117.035156 19.976562 -117.75 23.1875 -117.75 C 28.300781 -117.75 32.429688 -115.722656 35.578125 -111.671875 C 38.734375 -107.628906 40.3125 -102.519531 40.3125 -96.34375 L 40.3125 -11.78125 C 40.3125 -8.5625 39.390625 -5.789062 37.546875 -3.46875 C 35.710938 -1.15625 32.769531 0 28.71875 0 Z M 28.71875 0 "/></g></g></g></svg>